<svg width="360" height="40" viewBox="0 0 360 40" fill="none" xmlns="http://www.w3.org/2000/svg">
<rect x="0.5" y="0.5" width="359" height="39" rx="7.5" fill="white" stroke="#8064A2"/>
<path d="M301 0H352C356.418 0 360 3.58172 360 8V32C360 36.4183 356.418 40 352 40H301V0Z" fill="#8064A2"/>
<path d="M315.508 15.624V24H313.828V15.624H315.508ZM320.912 17.256C321.704 17.256 322.344 17.508 322.832 18.012C323.32 18.508 323.564 19.204 323.564 20.1V24H321.884V20.328C321.884 19.8 321.752 19.396 321.488 19.116C321.224 18.828 320.864 18.684 320.408 18.684C319.944 18.684 319.576 18.828 319.304 19.116C319.04 19.396 318.908 19.8 318.908 20.328V24H317.228V17.352H318.908V18.18C319.132 17.892 319.416 17.668 319.76 17.508C320.112 17.34 320.496 17.256 320.912 17.256ZM327.993 22.452L329.673 17.352H331.461L329.001 24H326.961L324.513 17.352H326.313L327.993 22.452ZM333.317 16.56C333.021 16.56 332.773 16.468 332.573 16.284C332.381 16.092 332.285 15.856 332.285 15.576C332.285 15.296 332.381 15.064 332.573 14.88C332.773 14.688 333.021 14.592 333.317 14.592C333.613 14.592 333.857 14.688 334.049 14.88C334.249 15.064 334.349 15.296 334.349 15.576C334.349 15.856 334.249 16.092 334.049 16.284C333.857 16.468 333.613 16.56 333.317 16.56ZM334.145 17.352V24H332.465V17.352H334.145ZM337.821 18.732V21.948C337.821 22.172 337.873 22.336 337.977 22.44C338.089 22.536 338.273 22.584 338.529 22.584H339.309V24H338.253C336.837 24 336.129 23.312 336.129 21.936V18.732H335.337V17.352H336.129V15.708H337.821V17.352H339.309V18.732H337.821ZM346.757 20.532C346.757 20.772 346.741 20.988 346.709 21.18H341.849C341.889 21.66 342.057 22.036 342.353 22.308C342.649 22.58 343.013 22.716 343.445 22.716C344.069 22.716 344.513 22.448 344.777 21.912H346.589C346.397 22.552 346.029 23.08 345.485 23.496C344.941 23.904 344.273 24.108 343.481 24.108C342.841 24.108 342.265 23.968 341.753 23.688C341.249 23.4 340.853 22.996 340.565 22.476C340.285 21.956 340.145 21.356 340.145 20.676C340.145 19.988 340.285 19.384 340.565 18.864C340.845 18.344 341.237 17.944 341.741 17.664C342.245 17.384 342.825 17.244 343.481 17.244C344.113 17.244 344.677 17.38 345.173 17.652C345.677 17.924 346.065 18.312 346.337 18.816C346.617 19.312 346.757 19.884 346.757 20.532ZM345.017 20.052C345.009 19.62 344.853 19.276 344.549 19.02C344.245 18.756 343.873 18.624 343.433 18.624C343.017 18.624 342.665 18.752 342.377 19.008C342.097 19.256 341.925 19.604 341.861 20.052H345.017Z" fill="white"/>
<path d="M18.016 16.524V19.32H21.064V20.22H18.016V23.1H21.424V24H16.924V15.624H21.424V16.524H18.016ZM30.9843 17.304C31.4963 17.304 31.9523 17.412 32.3523 17.628C32.7523 17.836 33.0683 18.152 33.3003 18.576C33.5323 19 33.6483 19.516 33.6483 20.124V24H32.5683V20.28C32.5683 19.624 32.4043 19.124 32.0763 18.78C31.7563 18.428 31.3203 18.252 30.7683 18.252C30.2003 18.252 29.7483 18.436 29.4123 18.804C29.0763 19.164 28.9083 19.688 28.9083 20.376V24H27.8283V20.28C27.8283 19.624 27.6643 19.124 27.3363 18.78C27.0163 18.428 26.5803 18.252 26.0283 18.252C25.4603 18.252 25.0083 18.436 24.6723 18.804C24.3363 19.164 24.1683 19.688 24.1683 20.376V24H23.0763V17.424H24.1683V18.372C24.3843 18.028 24.6723 17.764 25.0323 17.58C25.4003 17.396 25.8043 17.304 26.2443 17.304C26.7963 17.304 27.2843 17.428 27.7083 17.676C28.1323 17.924 28.4483 18.288 28.6563 18.768C28.8403 18.304 29.1443 17.944 29.5683 17.688C29.9923 17.432 30.4643 17.304 30.9843 17.304ZM35.0316 20.688C35.0316 20.016 35.1676 19.428 35.4396 18.924C35.7116 18.412 36.0836 18.016 36.5556 17.736C37.0356 17.456 37.5676 17.316 38.1516 17.316C38.7276 17.316 39.2276 17.44 39.6516 17.688C40.0756 17.936 40.3916 18.248 40.5996 18.624V17.424H41.7036V24H40.5996V22.776C40.3836 23.16 40.0596 23.48 39.6276 23.736C39.2036 23.984 38.7076 24.108 38.1396 24.108C37.5556 24.108 37.0276 23.964 36.5556 23.676C36.0836 23.388 35.7116 22.984 35.4396 22.464C35.1676 21.944 35.0316 21.352 35.0316 20.688ZM40.5996 20.7C40.5996 20.204 40.4996 19.772 40.2996 19.404C40.0996 19.036 39.8276 18.756 39.4836 18.564C39.1476 18.364 38.7756 18.264 38.3676 18.264C37.9596 18.264 37.5876 18.36 37.2516 18.552C36.9156 18.744 36.6476 19.024 36.4476 19.392C36.2476 19.76 36.1476 20.192 36.1476 20.688C36.1476 21.192 36.2476 21.632 36.4476 22.008C36.6476 22.376 36.9156 22.66 37.2516 22.86C37.5876 23.052 37.9596 23.148 38.3676 23.148C38.7756 23.148 39.1476 23.052 39.4836 22.86C39.8276 22.66 40.0996 22.376 40.2996 22.008C40.4996 21.632 40.5996 21.196 40.5996 20.7ZM44.113 16.356C43.905 16.356 43.729 16.284 43.585 16.14C43.441 15.996 43.369 15.82 43.369 15.612C43.369 15.404 43.441 15.228 43.585 15.084C43.729 14.94 43.905 14.868 44.113 14.868C44.313 14.868 44.481 14.94 44.617 15.084C44.761 15.228 44.833 15.404 44.833 15.612C44.833 15.82 44.761 15.996 44.617 16.14C44.481 16.284 44.313 16.356 44.113 16.356ZM44.641 17.424V24H43.549V17.424H44.641ZM47.5941 15.12V24H46.5021V15.12H47.5941ZM53.7465 15.636V24H52.6545V15.636H53.7465ZM58.2116 15.636C59.1236 15.636 59.9116 15.808 60.5756 16.152C61.2476 16.488 61.7596 16.972 62.1116 17.604C62.4716 18.236 62.6516 18.98 62.6516 19.836C62.6516 20.692 62.4716 21.436 62.1116 22.068C61.7596 22.692 61.2476 23.172 60.5756 23.508C59.9116 23.836 59.1236 24 58.2116 24H55.6076V15.636H58.2116ZM58.2116 23.1C59.2916 23.1 60.1156 22.816 60.6836 22.248C61.2516 21.672 61.5356 20.868 61.5356 19.836C61.5356 18.796 61.2476 17.984 60.6716 17.4C60.1036 16.816 59.2836 16.524 58.2116 16.524H56.6996V23.1H58.2116Z" fill="#939CA3"/>
</svg>
